<svg version="1.1" xmlns="http://www.w3.org/2000/svg" xmlns:xlink="http://www.w3.org/1999/xlink" width="80.44615" height="701.29279" viewBox="0,0,80.44615,701.29279"><g transform="translate(-199.77692,159.05856)"><g data-paper-data="{&quot;isPaintingLayer&quot;:true}" fill-rule="nonzero" stroke="none" stroke-width="0" stroke-linecap="butt" stroke-linejoin="miter" stroke-miterlimit="10" stroke-dasharray="" stroke-dashoffset="0" style="mix-blend-mode: normal"><path d="M270.77692,297.45083v244.7834h-63v-244.7834z" data-paper-data="{&quot;index&quot;:null}" fill="#adff00"/><path d="M232.77692,295.80799v243.14056h-14v-243.14056z" data-paper-data="{&quot;index&quot;:null}" fill="#dbff8d"/><path d="M269.77692,297.45083v239.85488h-14v-239.85488z" data-paper-data="{&quot;index&quot;:null}" fill="#84c100"/><path d="M272.77692,299.09367v233.28351h-8v-233.28351z" data-paper-data="{&quot;index&quot;:null}" fill="#5a8400"/><path d="M280.22308,269.74157v32.63778h-80.44615v-32.63778z" data-paper-data="{&quot;index&quot;:null}" fill="#adff00"/><path d="M231.7,269.52252v32.41874h-17.87692v-32.41874z" data-paper-data="{&quot;index&quot;:null}" fill="#dbff8d"/><path d="M278.94615,269.74157v31.98065h-17.87692v-31.98065z" data-paper-data="{&quot;index&quot;:null}" fill="#84c100"/><path d="M207.77692,85.72484v-244.7834h63v244.7834z" data-paper-data="{&quot;index&quot;:null}" fill="#adff00"/><path d="M218.77692,87.36768v-243.14056h14v243.14056z" data-paper-data="{&quot;index&quot;:null}" fill="#dbff8d"/><path d="M255.77692,85.72484v-239.85488h14v239.85488z" data-paper-data="{&quot;index&quot;:null}" fill="#84c100"/><path d="M264.77692,84.082v-233.28351h8v233.28351z" data-paper-data="{&quot;index&quot;:null}" fill="#5a8400"/><path d="M199.77693,113.4341v-32.63778h80.44615v32.63778z" data-paper-data="{&quot;index&quot;:null}" fill="#adff00"/><path d="M213.82308,113.65315v-32.41874h17.87692v32.41874z" data-paper-data="{&quot;index&quot;:null}" fill="#dbff8d"/><path d="M261.06923,113.4341v-31.98065h17.87692v31.98065z" data-paper-data="{&quot;index&quot;:null}" fill="#84c100"/></g></g></svg>