<svg version="1.1" xmlns="http://www.w3.org/2000/svg" xmlns:xlink="http://www.w3.org/1999/xlink" width="51.19976" height="35.75097" viewBox="0,0,51.19976,35.75097"><g transform="translate(-217.2982,-162.20291)"><g data-paper-data="{&quot;isPaintingLayer&quot;:true}" fill-rule="nonzero" stroke="none" stroke-linecap="butt" stroke-linejoin="miter" stroke-miterlimit="10" stroke-dasharray="" stroke-dashoffset="0" style="mix-blend-mode: normal"><path d="M262.9018,180.31358c0,9.74247 -10.0744,17.6403 -22.5018,17.6403c-12.4274,0 -22.5018,-7.89783 -22.5018,-17.6403c0,-9.74247 10.0744,-17.6403 22.5018,-17.6403c12.4274,0 22.5018,7.89783 22.5018,17.6403z" fill="#8fda25" stroke-width="NaN"/><path d="M261.1711,179.40001c0,9.49769 -9.82128,17.19709 -21.93645,17.19709c-12.11517,0 -21.93645,-7.6994 -21.93645,-17.19709c0,-9.49769 9.82128,-17.19709 21.93645,-17.19709c12.11517,0 21.93645,7.6994 21.93645,17.19709z" fill="#a7ff2c" stroke-width="NaN"/><path d="M258.50968,178.8c0,8.83495 -9.13596,15.99709 -20.40574,15.99709c-11.26978,0 -20.40574,-7.16214 -20.40574,-15.99709c0,-8.83495 9.13596,-15.99709 20.40574,-15.99709c11.26978,0 20.40574,7.16214 20.40574,15.99709z" fill="#b5ff4e" stroke-width="NaN"/><path d="M254.20424,172.89366c0,2.94098 -3.13701,5.32511 -7.00672,5.32511c-3.86971,0 -7.00673,-2.38413 -7.00673,-5.32511c0,-2.94098 3.13702,-5.32511 7.00673,-5.32511c3.86971,0 7.00672,2.38413 7.00672,5.32511z" fill="#ffffff" stroke-width="0"/><path d="M251.96208,173.4542c0,1.39309 -1.19206,2.52242 -2.66255,2.52242c-1.47049,0 -2.66256,-1.12932 -2.66256,-2.52242c0,-1.39309 1.19207,-2.52242 2.66256,-2.52242c1.47049,0 2.66255,1.12933 2.66255,2.52242z" fill="#000000" stroke-width="0"/><path d="M268.49796,187.04724c0,3.63753 -5.20745,6.58633 -11.63117,6.58633c-6.42371,0 -11.63117,-2.9488 -11.63117,-6.58633c0,-3.63753 5.20745,-6.58632 11.63117,-6.58632c6.42372,0 11.63117,2.9488 11.63117,6.58632z" fill="#7cbd20" stroke-width="0"/><path d="M264.16146,188.27881c-0.29334,0 -0.48571,-0.10098 -0.61186,-0.23341c-5.65973,0.09812 -11.93061,1.47242 -17.33189,-0.288c0,0 -0.80845,-0.26948 -0.53897,-1.07794c0.26948,-0.80845 1.07794,-0.53897 1.07794,-0.53897c5.30294,1.81496 11.86279,0.19511 17.40478,0.19511l0.85219,1.09103c0,0 0,0.85219 -0.85219,0.85219z" fill="#000000" stroke-width="0.5"/><path d="M241.19311,178.3c0,5.96468 -5.05764,10.8 -11.29655,10.8c-6.23891,0 -11.29655,-4.83532 -11.29655,-10.8c0,-5.96468 5.05764,-10.8 11.29655,-10.8c6.23891,0 11.29655,4.83532 11.29655,10.8z" fill="#bfff66" stroke-width="0"/></g></g></svg>