<svg version="1.1" xmlns="http://www.w3.org/2000/svg" xmlns:xlink="http://www.w3.org/1999/xlink" width="759.2268" height="572" viewBox="0,0,759.2268,572"><g transform="translate(146.1134,121.5)"><g data-paper-data="{&quot;isPaintingLayer&quot;:true}" fill-rule="nonzero" stroke="none" stroke-width="0" stroke-linecap="butt" stroke-linejoin="miter" stroke-miterlimit="10" stroke-dasharray="" stroke-dashoffset="0" style="mix-blend-mode: normal"><path d="M-146.1134,450.5v-572h759.2268v572z" fill="#e9deff"/><path d="M2,342.78571v-92.23469h39v92.23469z" fill="#b8b8b8"/><path d="M63,348.13265v-61.4898h30v61.4898z" fill="#b8b8b8"/><path d="M91,361.5v-121.64286h48v121.64286z" fill="#b8b8b8"/><path d="M156,346.79592v-58.81633h36v58.81633z" fill="#b8b8b8"/><path d="M207,356.15306v-125.65306h37v125.65306z" fill="#b8b8b8"/><path d="M265,344.12245v-78.86735h41v78.86735z" fill="#b8b8b8"/><path d="M329,340.11224v-105.60204h31v105.60204z" fill="#b8b8b8"/><path d="M370,345.45918v-73.52041h60v73.52041z" fill="#b8b8b8"/><path d="M448,356.15306v-114.95918h32v114.95918z" fill="#c0c0c0"/><path d="M24.125,281.29592v25.39796h-14.25v-25.39796z" fill="#ffffff"/><path d="M10,277.28571v-12.03061h12v12.03061z" fill="#ffffff"/><path d="M32,273.27551v-18.71429h4v18.71429z" fill="#ffffff"/><path d="M24,329.41837v-16.04082h10v16.04082z" fill="#ffffff"/><path d="M67,309.36735v-14.70408h11v14.70408z" fill="#ffffff"/><path d="M76,330.7551v-8.02041h12v8.02041z" fill="#ffffff"/><path d="M82,312.04082v-18.71429h6v18.71429z" fill="#ffffff"/><path d="M94,273.27551v-28.07143h15v28.07143z" fill="#ffffff"/><path d="M110,273.27551v-28.07143h15v28.07143z" fill="#ffffff"/><path d="M127,267.92857v-21.38776h9v21.38776z" fill="#ffffff"/><path d="M94,328.08163v-37.42857h13v37.42857z" fill="#ffffff"/><path d="M108,328.08163v-37.42857h20v37.42857z" fill="#ffffff"/><path d="M133,310.70408v-32.08163h2v32.08163z" fill="#ffffff"/><path d="M160,314.71429v-17.37755h11v17.37755z" fill="#ffffff"/><path d="M177,328.08163v-14.70408h11v14.70408z" fill="#ffffff"/><path d="M175,308.03061v-20.05102h15v20.05102z" fill="#ffffff"/><path d="M161,340.11224v-17.37755h11v17.37755z" fill="#ffffff"/><path d="M213,259.90816v-24.06122h10v24.06122z" fill="#ffffff"/><path d="M227,269.26531v-26.73469h8v26.73469z" fill="#ffffff"/><path d="M226,300.0102v-20.05102h12v20.05102z" fill="#ffffff"/><path d="M210,300.0102v-18.71429h9v18.71429z" fill="#ffffff"/><path d="M214,316.05102v-4.0102h23v4.0102z" fill="#ffffff"/><path d="M271,293.32653v-17.37755h10v17.37755z" fill="#ffffff"/><path d="M284,286.64286v-12.03061h17v12.03061z" fill="#ffffff"/><path d="M280,317.38776v-22.72449h15v22.72449z" fill="#ffffff"/><path d="M269,334.76531v-9.35714h39v9.35714z" fill="#ffffff"/><path d="M333,261.2449v-17.37755h7v17.37755z" fill="#ffffff"/><path d="M346,273.27551v-14.70408h9v14.70408z" fill="#ffffff"/><path d="M331,305.35714v-25.39796h28v25.39796z" fill="#ffffff"/><path d="M335,332.09184v-9.35714h25v9.35714z" fill="#ffffff"/><path d="M378,305.95125v-20.79365h28v20.79365z" fill="#ffffff"/><path d="M413,304.02041v-18.71429h12v18.71429z" fill="#ffffff"/><path d="M386,329.41837v-16.04082h38v16.04082z" fill="#ffffff"/><path d="M454,269.26531v-18.71429h3v18.71429z" fill="#ffffff"/><path d="M466,265.2551v-16.04082h7v16.04082z" fill="#ffffff"/><path d="M450,317.38776v-40.10204h24v40.10204z" fill="#ffffff"/><path d="M83,352.40789c0,19.43897 -16.78932,35.19737 -37.5,35.19737c-20.71068,0 -37.5,-15.7584 -37.5,-35.19737c0,-19.43897 16.78932,-35.19737 37.5,-35.19737c20.71068,0 37.5,15.7584 37.5,35.19737z" fill="#ffffff"/><path d="M10.5,374.93421c-22.36753,0 -40.5,-11.66121 -40.5,-26.04605c0,-14.38484 18.13247,-26.04605 40.5,-26.04605c22.36753,0 40.5,11.66121 40.5,26.04605c0,14.38484 -18.13247,26.04605 -40.5,26.04605z" fill="#ffffff"/><path d="M65,354.51974c0,-12.82972 9.84974,-23.23026 22,-23.23026c12.15026,0 22,10.40054 22,23.23026c0,12.82972 -9.84974,23.23026 -22,23.23026c-12.15026,0 -22,-10.40054 -22,-23.23026z" fill="#ffffff"/><path d="M164.5,390.42105c-10.21727,0 -18.5,-16.7039 -18.5,-37.30921c0,-20.60531 8.28273,-37.30921 18.5,-37.30921c10.21727,0 18.5,16.7039 18.5,37.30921c0,20.60531 -8.28273,37.30921 -18.5,37.30921z" fill="#ffffff"/><path d="M154,347.48026c0,16.71751 -12.75988,30.26974 -28.5,30.26974c-15.74012,0 -28.5,-13.55222 -28.5,-30.26974c0,-16.71751 12.75988,-30.26974 28.5,-30.26974c15.74012,0 28.5,13.55222 28.5,30.26974z" fill="#ffffff"/><path d="M212.5,374.93421c-17.39697,0 -31.5,-15.7584 -31.5,-35.19737c0,-19.43897 14.10303,-35.19737 31.5,-35.19737c17.39697,0 31.5,15.7584 31.5,35.19737c0,19.43897 -14.10303,35.19737 -31.5,35.19737z" fill="#ffffff"/><path d="M289,381.97368c-13.80712,0 -25,-18.59491 -25,-41.53289c0,-22.93798 11.19288,-41.53289 25,-41.53289c13.80712,0 25,18.59491 25,41.53289c0,22.93798 -11.19288,41.53289 -25,41.53289z" fill="#ffffff"/><path d="M222,358.74342c0,-25.27066 10.52131,-45.75658 23.5,-45.75658c12.97869,0 23.5,20.48592 23.5,45.75658c0,25.27066 -10.52131,45.75658 -23.5,45.75658c-12.97869,0 -23.5,-20.48592 -23.5,-45.75658z" fill="#ffffff"/><path d="M361,350.29605c0,16.71751 -12.98374,30.26974 -29,30.26974c-16.01626,0 -29,-13.55222 -29,-30.26974c0,-16.71751 12.98374,-30.26974 29,-30.26974c16.01626,0 29,13.55222 29,30.26974z" fill="#ffffff"/><path d="M355,351.42763c0,-12.20477 5.8203,-22.09868 13,-22.09868c7.1797,0 13,9.89392 13,22.09868c0,12.20477 -5.8203,22.09868 -13,22.09868c-7.1797,0 -13,-9.89392 -13,-22.09868z" fill="#ffffff"/><path d="M386.5,298.9079c7.45584,0 13.5,14.18256 13.5,31.67763c0,17.49507 -6.04416,31.67763 -13.5,31.67763c-7.45584,0 -13.5,-14.18256 -13.5,-31.67763c0,-17.49507 6.04416,-31.67763 13.5,-31.67763z" fill="#ffffff"/><path d="M376,352.40789c0,-10.88582 10.29745,-19.71053 23,-19.71053c12.70255,0 23,8.8247 23,19.71053c0,10.88582 -10.29745,19.71053 -23,19.71053c-12.70255,0 -23,-8.8247 -23,-19.71053z" fill="#ffffff"/><path d="M424.5,320.02632c11.87412,0 21.5,9.45504 21.5,21.11842c0,11.66338 -9.62588,21.11842 -21.5,21.11842c-11.87412,0 -21.5,-9.45504 -21.5,-21.11842c0,-11.66338 9.62588,-21.11842 21.5,-21.11842z" fill="#ffffff"/><path d="M430,348.18421c0,-10.88582 9.84974,-19.71053 22,-19.71053c12.15026,0 22,8.8247 22,19.71053c0,10.88582 -9.84974,19.71053 -22,19.71053c-12.15026,0 -22,-8.8247 -22,-19.71053z" fill="#ffffff"/><path d="M469,297.5c13.80712,0 25,18.13541 25,40.50658c0,22.37117 -11.19288,40.50658 -25,40.50658c-13.80712,0 -25,-18.13541 -25,-40.50658c0,-22.37117 11.19288,-40.50658 25,-40.50658z" fill="#ffffff"/><path d="M189.5,386.19737c-5.79899,0 -10.5,-12.92188 -10.5,-28.86184c0,-15.93995 4.70101,-28.86184 10.5,-28.86184c5.79899,0 10.5,12.92188 10.5,28.86184c0,15.93995 -4.70101,28.86184 -10.5,28.86184z" fill="#ffffff"/><path d="M55,23.5c0,7.1797 -9.17816,13 -20.5,13c-11.32184,0 -20.5,-5.8203 -20.5,-13c0,-7.1797 9.17816,-13 20.5,-13c11.32184,0 20.5,5.8203 20.5,13z" fill="#ffffff"/><path d="M107,37.5c-9.38884,0 -17,-6.93959 -17,-15.5c0,-8.56041 7.61116,-15.5 17,-15.5c9.38884,0 17,6.93959 17,15.5c0,8.56041 -7.61116,15.5 -17,15.5z" fill="#ffffff"/><path d="M3,14.5c0,-10.49341 16.56546,-19 37,-19c20.43454,0 37,8.50659 37,19c0,10.49341 -16.56546,19 -37,19c-20.43454,0 -37,-8.50659 -37,-19z" fill="#ffffff"/><path d="M101.5,-6.5c21.26296,0 38.5,7.83502 38.5,17.5c0,9.66498 -17.23704,17.5 -38.5,17.5c-21.26296,0 -38.5,-7.83502 -38.5,-17.5c0,-9.66498 17.23704,-17.5 38.5,-17.5z" fill="#ffffff"/><path d="M208.5,-2.5c14.08326,0 25.5,6.49187 25.5,14.5c0,8.00813 -11.41674,14.5 -25.5,14.5c-14.08326,0 -25.5,-6.49187 -25.5,-14.5c0,-8.00813 11.41674,-14.5 25.5,-14.5z" fill="#ffffff"/><path d="M217,17c0,-6.90356 9.40202,-12.5 21,-12.5c11.59798,0 21,5.59644 21,12.5c0,6.90356 -9.40202,12.5 -21,12.5c-11.59798,0 -21,-5.59644 -21,-12.5z" fill="#ffffff"/><path d="M226.5,41.5c-10.21727,0 -18.5,-8.05887 -18.5,-18c0,-9.94113 8.28273,-18 18.5,-18c10.21727,0 18.5,8.05887 18.5,18c0,9.94113 -8.28273,18 -18.5,18z" fill="#ffffff"/><path d="M289.5,-5.5c24.57667,0 44.5,6.26801 44.5,14c0,7.73199 -19.92333,14 -44.5,14c-24.57667,0 -44.5,-6.26801 -44.5,-14c0,-7.73199 19.92333,-14 44.5,-14z" fill="#ffffff"/><path d="M273.5,13.5c24.57667,0 44.5,4.02944 44.5,9c0,4.97056 -19.92333,9 -44.5,9c-24.57667,0 -44.5,-4.02944 -44.5,-9c0,-4.97056 19.92333,-9 44.5,-9z" fill="#ffffff"/><path d="M296,7c0,-8.00813 29.54921,-14.5 66,-14.5c36.45079,0 66,6.49187 66,14.5c0,8.00813 -29.54921,14.5 -66,14.5c-36.45079,0 -66,-6.49187 -66,-14.5z" fill="#ffffff"/><path d="M432,11.5c18.77768,0 34,5.37258 34,12c0,6.62742 -15.22232,12 -34,12c-18.77768,0 -34,-5.37258 -34,-12c0,-6.62742 15.22232,-12 34,-12z" fill="#ffffff"/><path d="M368,31.5c-27.61424,0 -50,-5.14873 -50,-11.5c0,-6.35127 22.38576,-11.5 50,-11.5c27.61424,0 50,5.14873 50,11.5c0,6.35127 -22.38576,11.5 -50,11.5z" fill="#ffffff"/><path d="M328,29.5c0,6.07513 -12.53603,11 -28,11c-15.46397,0 -28,-4.92487 -28,-11c0,-6.07513 12.53603,-11 28,-11c15.46397,0 28,4.92487 28,11z" fill="#ffffff"/><path d="M459,44.5c-20.43454,0 -37,-9.84974 -37,-22c0,-12.15026 16.56546,-22 37,-22c20.43454,0 37,9.84974 37,22c0,12.15026 -16.56546,22 -37,22z" fill="#ffffff"/><path d="M434,-11.5c8.28427,0 15,5.59644 15,12.5c0,6.90356 -6.71573,12.5 -15,12.5c-8.28427,0 -15,-5.59644 -15,-12.5c0,-6.90356 6.71573,-12.5 15,-12.5z" fill="#ffffff"/><path d="M477,-14.5c11.04569,0 20,6.71573 20,15c0,8.28427 -8.95431,15 -20,15c-11.04569,0 -20,-6.71573 -20,-15c0,-8.28427 8.95431,-15 20,-15z" fill="#ffffff"/><path d="M187.5,-13.5c36.72694,0 66.5,8.05887 66.5,18c0,9.94113 -29.77306,18 -66.5,18c-36.72694,0 -66.5,-8.05887 -66.5,-18c0,-9.94113 29.77306,-18 66.5,-18z" fill="#ffffff"/><path d="M155,36.5c-17.12083,0 -31,-8.50659 -31,-19c0,-10.49341 13.87917,-19 31,-19c17.12083,0 31,8.50659 31,19c0,10.49341 -13.87917,19 -31,19z" fill="#ffffff"/><path d="M34.5,-18.5c26.23353,0 47.5,8.73045 47.5,19.5c0,10.76955 -21.26647,19.5 -47.5,19.5c-26.23353,0 -47.5,-8.73045 -47.5,-19.5c0,-10.76955 21.26647,-19.5 47.5,-19.5z" fill="#ffffff"/></g></g></svg>